<?xml version="1.0" standalone="no"?>
<!DOCTYPE svg PUBLIC "-//W3C//DTD SVG 20010904//EN"
 "http://www.w3.org/TR/2001/REC-SVG-20010904/DTD/svg10.dtd">
<svg version="1.0" xmlns="http://www.w3.org/2000/svg"
 width="260.000000pt" height="260.000000pt" viewBox="0 0 260.000000 260.000000"
 preserveAspectRatio="xMidYMid meet">
<metadata>
Created by potrace 1.11, written by Peter Selinger 2001-2013
</metadata>
<g transform="translate(0.000000,260.000000) scale(0.100000,-0.100000)"
fill="#000000" stroke="none">
<path d="M159 2533 c-7 -38 -12 -126 -12 -198 1 -141 20 -239 68 -343 l26 -56
37 35 c64 61 117 98 199 138 83 42 200 81 239 81 21 0 24 -4 20 -27 -5 -29
-14 -143 -22 -281 -2 -42 -6 -284 -9 -537 -5 -478 -8 -566 -26 -700 -21 -160
-46 -230 -122 -341 -31 -45 -50 -86 -54 -111 -5 -36 -1 -45 30 -80 43 -47 166
-113 211 -113 20 0 40 8 51 20 44 49 143 413 160 595 4 39 10 79 12 90 3 11 7
198 8 415 4 390 10 582 21 650 10 61 42 139 73 182 30 41 31 45 31 150 l0 107
77 3 77 3 1 158 1 157 -78 0 -78 0 0 35 0 35 -149 0 -148 0 -9 -32 c-9 -29
-14 -33 -44 -32 -64 1 -265 15 -285 19 -11 2 -44 7 -73 10 -69 7 -118 15 -167
26 -22 4 -43 9 -46 9 -4 0 -13 -30 -20 -67z"/>
<path d="M1449 2578 c0 -29 0 -1145 0 -1178 l1 -25 401 1 c450 2 458 3 501 73
21 34 23 47 22 216 0 151 -3 185 -17 213 -19 35 -87 89 -125 99 -22 5 -21 7
15 23 47 21 99 78 111 122 4 18 8 110 7 203 -1 158 -3 174 -23 207 -41 66 -53
68 -497 68 l-395 0 -1 -22z m606 -230 c9 -9 10 -226 1 -235 -7 -7 -263 -12
-282 -6 -8 3 -11 44 -11 127 l1 123 142 -1 c78 -1 146 -4 149 -8z m1 -479 c8
-13 9 -233 0 -247 -3 -5 -69 -9 -148 -8 l-143 1 -1 133 0 132 142 0 c94 0 145
-4 150 -11z"/>
<path d="M1449 1208 c0 -10 -1 -286 -2 -613 l-2 -595 158 0 c142 0 157 2 158
18 0 9 1 118 1 242 l1 225 121 -2 c67 0 133 -2 149 -2 l27 -1 0 -240 0 -240
158 0 159 0 0 610 c0 552 -2 610 -16 611 -18 1 -256 1 -283 0 -17 -1 -18 -19
-18 -234 l0 -232 -147 0 -148 0 -1 228 c-1 125 -4 230 -7 233 -3 4 -74 7 -157
8 -136 1 -150 -1 -151 -16z"/>
</g>
</svg>
